<?xml version="1.0" standalone="no"?>
<!DOCTYPE svg PUBLIC "-//W3C//DTD SVG 20010904//EN"
 "http://www.w3.org/TR/2001/REC-SVG-20010904/DTD/svg10.dtd">
<svg version="1.0" xmlns="http://www.w3.org/2000/svg"
 width="700.000000pt" height="700.000000pt" viewBox="0 0 700.000000 700.000000"
 preserveAspectRatio="xMidYMid meet">
<metadata>
Created by potrace 1.11, written by Peter Selinger 2001-2013
</metadata>
<g transform="translate(0.000000,700.000000) scale(0.100000,-0.100000)"
fill="#000000" stroke="none">
<path d="M188 3592 c-3 -1326 -3 -1332 17 -1333 120 -4 927 -1 931 4 4 4 7 91
7 194 l0 188 -199 3 -200 2 0 940 0 940 198 0 198 0 1 33 c3 141 1 348 -4 353
-4 4 -218 7 -477 8 l-470 1 -2 -1333z"/>
<path d="M5862 4916 c-4 -7 -6 -301 -3 -373 1 -10 48 -13 199 -13 l198 0 0
-937 0 -938 -199 -5 -199 -5 -1 -188 c0 -103 3 -190 6 -194 8 -7 935 -8 943
-1 6 7 6 2649 0 2656 -10 9 -938 7 -944 -2z"/>
<path d="M1546 4830 c-10 -4 -12 -215 -12 -1095 l1 -1090 435 0 c518 1 633 7
819 47 324 69 577 265 710 550 69 146 99 297 99 493 0 207 -30 355 -101 505
-47 99 -103 177 -192 266 -168 170 -377 266 -655 299 -25 3 -61 8 -80 10 -120
14 -992 27 -1024 15z m954 -499 c139 -28 232 -74 313 -155 44 -44 108 -146
109 -173 0 -4 5 -19 10 -33 35 -90 41 -278 13 -411 -37 -180 -160 -326 -323
-383 -104 -37 -256 -53 -438 -47 l-32 1 1 603 c0 331 1 605 3 609 6 10 282 1
344 -11z"/>
<path d="M3719 4830 l-25 -5 -1 -237 c0 -212 1 -238 16 -239 9 0 166 -1 349
-1 234 -1 332 -4 334 -12 1 -6 2 -389 3 -851 l2 -840 310 -2 310 -3 1 833 c0
457 1 841 1 853 1 21 2 21 339 22 185 0 343 1 350 1 9 1 12 57 12 244 l0 242
-988 0 c-543 0 -999 -2 -1013 -5z"/>
</g>
</svg>
